P1
# CREATOR: GIMP PNM Filter Version 1.1
37 37
0000000000000000000000000000000000000000000000000000000000000000000000
0000000000000000000000000000000000000000000000000000000000000000000000
0000000000001111111001110111111000111111100000000100000101111100101111
0100000100000000101110100001001010000010111010000000010111010111101100
1000010111010000000010111010101000111101001011101000000001000001001011
0101000101000001000000001111111010101010101010111111100000000000000001
0110110100110000000000000000010111101000000101101110110100000000011010
0001010101110110001101100000000010011111001100110100001011000000000000
0010001000100011111110111001000000000000011110000000100011110101000000
0000111000011010000111000101010100000000011011111010010001010110010010
0000000010001011110100100111100011110000000000101010101101010000100101
0100000000011000101000100100001100010100000000001100001100110010100110
0110001000000001110100100101001100001101011100000000111000101011100011
0011111010000000000000000001111011100111000111000000000011111110011100
0101011010101000000000010000010101101010101100011001000000001011101010
0101001001111110010000000001011101010110010011101010111000000000101110
1000001011000101001011100000000100000101000101110100110111010000000011
1111100011101000101001110000000000000000000000000000000000000000000000
0000000000000000000000000000000000000000000000000000000000000000000000
000000000000000000000000000000000000000