P2
# CREATOR: GIMP PNM Filter Version 1.1
108 40
255
1
1
1
1
1
0
1
1
1
0
0
1
0
0
0
0
0
0
0
0
0
0
1
0
0
0
0
0
0
0
0
0
0
1
0
0
0
0
0
0
0
0
0
0
0
0
0
0
0
0
0
0
0
0
0
0
0
0
13
39
36
35
37
42
61
62
64
65
85
35
9
10
2
15
1
1
18
11
23
15
2
2
2
2
1
1
2
4
7
11
10
11
1
0
0
0
0
0
0
0
0
0
0
0
0
0
0
0
5
5
7
3
4
7
7
6
6
8
3
3
1
0
0
0
0
0
0
1
2
0
0
1
1
1
0
0
0
0
0
0
0
0
0
0
0
0
0
0
0
0
0
0
0
0
0
0
0
0
0
0
0
0
0
0
0
0
0
48
52
58
60
63
57
51
51
37
75
48
21
7
2
2
5
1
15
5
19
29
1
0
0
0
0
0
0
0
0
13
0
0
0
0
0
0
0
0
0
0
0
0
0
0
0
0
0
0
6
7
8
9
9
4
6
7
7
6
7
9
10
7
3
5
10
8
0
1
3
5
3
3
5
4
3
3
2
3
2
1
1
0
0
0
1
0
0
0
0
0
0
0
0
0
0
0
0
0
0
0
0
0
0
0
1
0
0
44
60
63
66
68
67
52
55
39
63
48
14
8
3
6
7
1
13
9
21
41
1
1
0
0
0
0
0
1
0
15
2
0
0
0
0
0
0
0
0
0
0
0
0
0
0
0
0
0
5
8
9
6
6
7
7
8
5
7
9
8
23
37
52
54
54
54
43
8
1
4
6
10
9
8
7
6
10
11
6
7
8
6
5
3
6
2
1
0
0
0
0
0
1
0
0
0
0
0
0
0
0
2
0
0
0
0
0
23
62
64
66
61
67
54
57
61
66
72
24
7
1
1
8
0
5
20
9
36
16
13
11
10
8
7
5
4
3
15
10
0
0
0
0
0
0
0
0
0
0
0
0
0
0
0
0
0
7
8
8
7
7
6
10
7
8
15
26
39
44
48
52
56
60
59
60
62
45
25
5
4
8
13
14
10
8
8
9
7
11
10
9
10
11
9
7
6
3
5
2
2
2
1
0
0
0
0
0
0
0
0
0
0
0
1
0
1
66
68
59
60
59
75
86
87
88
98
60
56
21
1
5
7
5
5
4
2
2
1
3
2
3
5
6
9
5
5
2
0
0
0
0
0
0
0
0
0
0
0
0
0
0
0
0
0
10
7
7
7
7
6
5
9
9
7
5
8
9
7
6
2
4
10
17
26
37
45
55
35
3
3
8
10
10
11
10
13
15
9
9
8
11
9
7
4
6
5
1
2
2
0
1
0
0
0
0
0
0
0
1
0
0
0
0
0
42
73
74
76
79
75
87
89
91
97
80
65
60
19
8
8
7
6
5
5
5
0
0
0
0
0
0
0
0
0
0
0
0
0
0
0
0
0
0
0
0
0
0
0
0
0
0
0
52
50
49
44
43
41
39
38
32
32
31
28
26
23
22
18
19
12
11
6
4
2
0
2
7
0
0
1
1
5
5
7
10
7
8
9
5
4
5
0
0
0
0
0
0
0
0
0
0
0
0
0
0
0
3
0
0
0
1
0
6
25
22
19
16
13
9
6
2
0
0
0
0
0
0
0
0
0
0
0
0
0
0
0
0
0
0
0
0
0
0
0
0
0
0
0
0
0
0
0
0
0
0
0
0
0
0
0
102
101
102
102
102
103
104
104
105
107
106
105
107
107
109
107
108
108
108
108
107
106
106
106
103
99
97
93
87
80
80
78
75
67
67
64
59
55
50
44
40
31
25
17
14
11
10
8
8
8
8
8
8
8
9
8
6
5
4
4
3
3
2
2
1
1
0
0
0
0
0
0
0
0
0
0
0
0
0
0
0
0
0
0
0
0
0
0
0
0
0
0
0
0
0
0
0
0
0
0
0
0
0
0
0
0
0
0
108
109
107
106
106
104
105
105
105
109
109
105
104
104
108
107
105
104
107
109
108
106
108
111
110
110
109
110
113
113
113
115
118
117
119
120
120
120
121
123
124
129
137
116
97
96
100
102
105
108
112
118
125
123
128
144
104
99
95
92
88
84
81
77
74
69
67
65
62
58
54
49
45
39
36
32
28
24
20
16
12
9
5
2
0
0
0
0
0
0
0
0
0
0
0
0
0
0
0
0
0
0
0
0
0
0
0
0
117
115
116
117
117
116
114
116
118
50
0
0
0
9
0
0
3
4
7
5
9
8
15
12
13
15
16
20
20
20
25
31
66
114
117
119
119
118
121
122
124
128
138
123
30
0
0
0
0
0
0
0
0
87
136
154
117
107
106
103
99
95
93
92
92
89
88
88
87
86
86
83
82
82
81
82
81
81
80
80
79
79
78
78
77
75
73
68
62
58
54
49
38
0
0
0
0
0
0
0
0
0
0
0
0
0
0
0
136
131
130
131
131
130
129
129
131
93
0
8
3
10
2
0
1
2
4
0
0
0
4
0
0
0
0
0
0
0
1
8
33
111
115
118
119
120
120
123
124
128
139
131
49
0
0
0
0
53
4
1
0
63
139
160
125
112
108
103
96
92
98
103
100
96
91
89
86
83
81
80
78
78
76
75
76
76
75
74
74
74
73
73
73
72
71
71
69
69
71
71
65
1
1
1
3
1
0
0
0
1
1
2
1
0
0
1
153
153
151
151
152
152
151
144
138
134
0
19
4
18
5
2
19
10
19
0
14
2
23
14
0
9
8
28
1
0
7
33
17
109
126
126
127
128
129
126
130
133
143
140
65
0
1
34
22
51
12
1
0
46
148
168
135
121
116
108
90
94
142
19
11
17
22
28
34
39
45
49
54
57
61
65
66
74
76
76
78
78
77
76
76
75
73
72
74
73
76
78
74
28
29
27
23
20
15
12
8
6
4
0
0
0
0
0
165
167
169
169
170
168
167
154
151
157
5
41
6
9
6
2
32
9
47
3
12
19
19
38
1
36
9
43
5
1
13
31
29
91
138
142
141
142
141
142
143
144
154
159
96
1
5
58
38
51
39
4
3
33
166
188
152
134
129
120
91
79
155
37
0
0
0
0
0
0
0
0
0
0
0
0
0
0
0
0
1
2
3
3
4
5
6
7
6
7
8
9
9
8
10
16
24
33
42
51
59
69
76
120
100
72
70
60
180
181
182
182
183
183
182
180
177
180
14
21
18
25
23
1
20
6
9
2
0
15
4
14
0
14
3
12
7
0
5
40
26
101
153
158
157
157
156
157
157
157
167
178
131
3
9
53
67
30
82
7
8
26
179
201
168
148
144
139
119
96
170
62
2
1
1
0
1
1
1
2
1
1
1
2
1
0
0
0
0
1
1
0
0
0
0
0
0
0
0
0
0
0
0
0
0
0
0
0
0
0
0
101
167
103
106
107
189
191
191
192
193
193
195
193
190
193
121
119
116
111
110
110
118
113
110
113
113
118
113
112
110
115
111
109
111
110
112
111
110
152
169
172
173
171
170
171
171
172
181
198
167
6
13
36
48
35
49
11
11
23
189
211
185
161
158
155
148
132
186
85
6
4
4
4
5
7
7
6
6
8
8
8
8
8
8
8
7
8
10
11
11
13
14
14
14
16
15
15
14
12
11
8
3
2
0
1
0
1
1
92
176
105
110
109
187
189
192
193
195
198
198
198
198
199
204
204
205
204
207
161
161
160
161
159
157
156
154
146
94
101
98
97
98
163
184
181
180
193
188
185
185
184
182
182
182
183
189
211
201
8
18
17
17
15
13
14
13
21
189
211
194
163
162
164
161
151
197
100
7
7
6
11
28
46
32
19
65
87
95
103
113
119
116
119
123
125
127
129
126
120
136
135
137
134
135
136
137
136
137
135
143
111
0
0
1
0
1
81
184
108
112
112
179
181
184
186
191
191
195
197
198
198
200
201
201
201
210
30
35
28
30
29
0
17
14
86
15
19
33
26
23
9
41
29
36
74
173
194
194
193
193
192
192
192
198
219
230
15
21
21
24
21
20
16
16
20
184
210
198
163
163
167
166
158
200
115
4
7
6
19
58
67
24
73
192
255
255
253
255
255
253
252
255
251
252
251
253
233
212
223
208
242
222
239
226
216
238
214
217
207
5
2
0
1
0
66
188
109
113
112
171
174
176
178
181
185
189
190
193
191
194
195
197
197
203
64
33
34
46
49
7
13
16
32
11
17
31
24
27
10
44
27
37
77
164
200
199
199
199
197
197
198
202
224
234
45
25
22
27
22
21
25
20
25
185
210
203
166
166
171
171
164
201
130
4
7
7
24
71
57
22
104
197
241
242
248
245
241
238
241
248
238
245
239
219
231
222
224
199
215
194
199
220
239
212
204
210
192
39
0
0
0
0
54
188
109
112
112
157
160
164
166
169
172
176
179
182
184
187
182
183
183
184
89
18
23
13
15
7
14
39
75
55
4
36
26
33
12
33
22
30
62
148
201
200
198
200
200
199
199
202
222
233
74
26
72
23
33
31
140
12
25
169
211
207
170
168
172
175
168
201
146
3
5
5
29
74
48
41
107
231
252
252
252
252
250
252
251
250
252
249
249
224
242
227
251
242
233
244
214
244
216
254
216
240
208
72
0
0
0
1
44
184
110
110
111
141
144
150
152
156
159
164
167
169
170
173
20
41
39
38
29
6
25
20
26
14
36
32
30
16
4
37
24
48
13
31
20
35
52
146
201
200
200
200
200
200
199
203
219
230
106
26
117
23
118
104
142
15
21
144
210
209
172
169
173
177
169
198
160
2
5
4
29
68
35
54
106
230
237
247
243
245
244
241
245
239
248
233
212
248
236
235
229
240
239
231
215
243
219
238
243
237
169
85
1
0
0
0
32
183
110
109
110
129
132
135
139
143
145
149
153
154
154
165
4
12
8
10
13
6
33
26
24
17
5
14
20
14
4
23
21
47
12
28
22
41
43
141
192
195
196
196
197
197
198
201
215
226
137
24
92
40
161
196
184
31
22
117
209
208
173
167
172
176
170
196
172
0
5
4
30
67
30
63
107
220
243
252
251
250
248
252
251
249
248
251
225
188
191
234
247
240
210
215
224
207
213
206
225
216
150
87
3
0
0
0
25
184
115
110
110
125
127
129
131
132
134
136
140
141
141
149
28
8
5
7
10
13
27
19
18
11
4
9
15
8
1
19
19
34
11
15
20
31
35
111
178
184
186
186
187
188
187
190
202
214
156
20
109
54
68
182
162
48
18
79
195
199
167
159
165
169
166
190
178
0
4
3
28
65
27
63
110
188
247
244
250
246
246
250
246
248
234
249
238
233
218
225
235
229
221
218
225
229
218
187
224
195
138
89
5
0
0
0
19
185
117
109
110
124
125
126
127
130
129
130
131
132
132
136
49
3
3
3
6
16
3
10
17
12
3
15
22
30
4
12
10
25
11
4
13
18
21
117
167
172
172
173
174
174
174
175
185
199
159
13
7
11
21
17
21
13
11
39
178
185
159
149
153
157
154
170
179
0
2
2
20
63
33
48
104
184
249
250
248
244
247
247
252
250
248
249
243
233
229
235
230
220
237
222
225
229
236
253
214
232
163
87
5
0
0
0
15
186
119
110
112
118
120
122
119
113
127
129
129
129
128
128
70
1
3
3
4
14
0
4
13
8
0
15
18
32
11
9
11
31
10
0
4
11
7
114
158
162
162
163
164
164
161
164
172
186
155
9
10
10
10
8
9
7
8
12
163
172
154
141
146
149
146
154
176
6
2
1
14
56
35
29
95
139
248
246
242
242
235
233
233
238
223
228
218
201
209
233
208
207
231
245
214
227
213
209
223
232
166
85
4
0
0
0
12
183
120
110
112
104
108
110
112
116
118
120
119
123
123
120
83
0
1
3
10
5
4
7
16
17
0
5
4
25
6
3
8
16
13
3
26
19
24
67
146
154
153
155
155
155
155
156
164
177
156
6
6
7
8
8
8
8
9
3
150
167
151
137
134
142
141
142
173
16
0
0
7
45
48
10
80
102
252
254
255
253
253
252
255
254
255
252
250
210
221
202
211
227
213
236
236
222
206
212
231
225
194
77
2
0
0
0
9
176
118
111
111
93
99
100
103
105
106
108
111
112
112
111
90
0
0
0
3
2
2
8
16
37
1
0
3
3
3
1
4
5
7
1
16
6
14
36
133
148
146
148
148
148
148
148
154
165
153
5
4
5
6
8
8
7
7
0
138
162
153
134
136
141
136
130
167
26
0
1
2
29
52
19
36
79
204
211
226
221
196
224
216
231
203
223
205
168
199
191
201
214
224
220
241
220
232
242
233
226
202
69
0
0
0
0
7
171
117
107
109
92
97
97
99
100
101
103
104
107
105
104
96
0
0
0
3
3
0
7
3
21
4
2
3
19
7
1
6
3
11
0
7
1
20
30
124
138
139
140
139
139
140
141
145
155
151
3
3
4
10
82
11
6
6
0
122
156
152
129
130
133
128
113
156
35
0
0
0
15
42
29
9
50
140
185
187
198
213
214
230
227
238
238
253
218
208
198
223
205
212
207
231
223
220
238
223
215
195
70
0
0
0
0
6
165
112
106
107
87
96
97
98
100
101
102
103
103
101
100
103
0
0
0
3
4
1
0
1
2
1
4
4
8
24
1
9
3
36
2
0
1
2
26
115
127
129
131
131
132
135
134
138
147
146
13
1
2
8
80
24
4
4
0
104
147
146
126
125
125
118
94
143
41
0
0
0
1
16
16
6
2
11
16
18
24
29
33
35
35
39
42
44
47
50
50
61
71
66
65
93
114
117
91
85
85
88
23
0
0
0
0
4
156
108
106
107
86
95
97
98
100
101
100
101
102
101
101
102
23
0
0
2
7
2
1
3
8
3
0
7
16
22
0
5
3
33
4
2
1
12
15
107
121
124
126
127
128
130
131
134
141
139
38
1
1
2
55
18
3
3
1
91
137
142
121
121
121
114
89
129
50
0
0
0
0
0
0
0
0
0
0
0
1
1
3
4
4
4
6
6
7
8
9
10
10
12
12
12
12
12
14
12
10
8
0
0
0
0
0
7
148
110
105
106
81
93
94
96
98
99
99
99
100
100
99
100
53
0
0
2
5
3
6
3
25
10
0
2
1
6
1
1
2
8
2
2
7
23
18
107
123
127
127
129
127
127
127
128
134
133
61
0
0
1
56
20
2
1
0
78
133
139
119
118
117
110
87
115
61
0
0
0
0
0
0
0
0
0
0
0
0
0
0
0
0
0
0
0
0
0
0
0
0
0
0
0
0
0
0
0
0
0
0
0
0
0
0
8
142
109
108
109
76
89
92
93
95
97
99
99
99
99
100
99
78
0
0
6
11
5
2
9
21
19
0
1
1
6
1
1
1
9
1
2
9
19
20
103
125
127
127
128
127
127
127
128
136
137
88
0
1
1
59
25
3
1
1
68
135
143
122
121
121
115
99
120
81
0
0
0
0
0
0
0
0
0
0
0
0
0
0
0
0
0
0
0
0
0
0
0
0
0
0
0
0
0
0
0
0
0
0
0
0
0
0
9
137
119
118
123
70
88
89
91
93
96
98
101
99
100
100
101
102
109
109
108
104
28
0
0
0
2
0
10
5
25
2
4
8
23
17
0
5
2
6
90
121
126
128
128
128
129
131
132
142
140
118
0
2
11
46
41
10
2
2
55
139
152
131
130
133
132
118
120
85
58
57
59
59
59
59
61
62
62
63
63
64
65
65
63
57
52
46
42
40
41
41
42
43
43
44
45
43
51
58
47
47
47
46
47
46
46
46
52
73
54
35
10
63
85
88
89
93
94
95
98
99
101
99
101
103
103
104
103
101
50
0
0
5
17
1
0
3
13
23
0
0
16
21
0
4
5
17
64
124
129
131
132
128
136
137
138
144
146
139
0
0
0
4
5
3
1
0
36
147
158
138
137
139
140
136
131
130
129
129
128
126
124
124
127
130
119
97
76
58
43
30
21
18
18
19
19
11
1
0
3
10
11
15
8
28
39
5
0
0
0
0
0
0
0
0
0
0
0
0
0
56
82
86
87
88
91
93
93
95
96
96
98
99
99
98
101
101
76
11
19
25
35
32
36
42
50
47
31
35
49
55
49
62
70
83
112
133
135
137
137
139
140
140
143
148
153
149
124
122
120
120
122
123
125
126
136
149
166
146
144
146
141
130
122
108
98
108
103
92
78
62
32
20
24
39
50
49
48
48
50
36
32
21
23
28
28
18
0
2
11
23
29
13
1
0
0
0
0
0
0
0
2
4
6
12
12
7
7
48
79
82
82
84
87
88
92
93
93
94
95
96
99
98
104
105
104
104
105
106
108
112
113
117
118
119
120
123
125
125
124
127
129
131
135
138
138
138
140
136
128
115
106
95
94
83
92
91
97
100
100
98
99
100
100
100
97
68
76
37
35
40
12
61
80
39
27
17
21
21
8
37
24
38
84
128
89
96
59
39
49
53
47
73
58
42
41
62
79
66
54
42
31
19
12
9
9
8
6
5
5
3
2
0
0
0
0
36
72
69
78
81
84
87
89
90
91
90
94
97
101
103
106
108
110
113
115
119
119
114
108
101
94
88
85
78
72
66
58
56
50
49
43
38
34
31
24
27
26
24
24
30
34
36
33
39
33
25
27
32
24
28
22
22
29
38
36
67
43
69
56
27
13
14
13
12
17
17
12
17
23
28
42
120
56
58
50
37
38
42
46
56
54
62
83
105
103
105
109
110
110
108
106
99
93
86
81
75
71
66
60
54
47
41
34
27
60
75
76
78
79
80
81
82
84
86
86
81
74
67
60
50
41
31
21
9
2
2
2
8
6
6
6
10
11
11
13
15
16
18
21
23
29
31
33
34
39
37
30
33
36
33
31
28
42
45
46
49
48
52
50
45
37
20
26
67
51
10
3
9
50
52
49
48
44
44
42
6
12
18
23
33
33
34
30
39
36
29
40
50
50
65
91
99
99
98
95
93
92
93
93
94
96
100
100
101
101
101
102
102
103
104
104
8
15
22
20
17
15
12
10
6
3
1
0
0
0
1
2
4
2
5
6
7
9
11
15
13
11
15
13
11
14
16
18
17
21
24
26
26
29
26
32
31
33
30
24
29
27
22
21
17
18
17
15
14
15
15
11
14
15
19
54
17
21
2
0
34
71
76
77
75
65
51
47
44
32
40
44
40
44
45
44
45
37
39
44
32
20
40
27
38
47
57
67
77
85
86
86
86
85
84
84
85
86
87
87
88
87
89
89
0
0
1
1
1
3
1
1
2
2
3
4
5
5
4
4
3
5
7
9
9
7
12
10
9
11
12
11
13
13
18
15
16
18
21
21
25
27
29
22
22
25
23
21
18
16
14
14
10
12
10
10
11
7
8
18
9
2
47
9
7
11
10
8
7
9
24
53
59
36
49
50
16
15
36
53
47
42
27
31
20
24
42
56
38
34
12
22
1
0
0
0
0
0
7
17
28
40
52
63
67
70
72
75
76
79
77
77
0
0
0
0
0
0
0
1
2
3
2
2
3
4
4
6
5
5
5
7
9
8
10
10
8
10
12
10
12
10
13
12
14
17
14
16
19
15
16
14
12
10
12
11
12
10
8
10
11
10
11
9
8
6
44
58
35
14
30
21
47
48
48
41
23
16
12
4
0
0
23
43
32
18
16
35
49
52
52
47
28
29
19
13
8
16
10
3
10
11
3
0
0
0
0
1
9
12
6
0
0
3
7
9
12
16
21
28
